<?xml version="1.0" encoding="UTF-8"?>
<svg id="Vrstva_1" data-name="Vrstva 1" xmlns="http://www.w3.org/2000/svg" xmlns:xlink="http://www.w3.org/1999/xlink" viewBox="0 0 160 160">
  <defs>
    <style>
      .cls-1 {
        fill: #202060;
        filter: url(#drop-shadow-1);
        stroke: #838bf9;
        stroke-miterlimit: 10;
        stroke-width: 2px;
      }

      .cls-2 {
        fill: #838bf9;
      }
    </style>
    <filter id="drop-shadow-1" x="65" y="70" width="89" height="89" filterUnits="userSpaceOnUse">
      <feOffset dx="0" dy="2"/>
      <feGaussianBlur result="blur" stdDeviation="5"/>
      <feFlood flood-color="#000" flood-opacity=".75"/>
      <feComposite in2="blur" operator="in"/>
      <feComposite in="SourceGraphic"/>
    </filter>
  </defs>
  <g>
    <rect class="cls-1" x="81.39" y="84.5" width="55.62" height="55.62" rx="4" ry="4"/>
    <path class="cls-2" d="M100.81,108.86l-14.98,25.95h31.7l-14.98-25.95c-.38-.67-1.35-.67-1.73,0Z"/>
    <path class="cls-2" d="M117.35,112.23l-13.04,22.58h27.8l-13.04-22.58c-.38-.67-1.35-.67-1.73,0Z"/>
    <circle class="cls-2" cx="119.13" cy="97" r="7.24"/>
  </g>
  <path class="cls-2" d="M35.42,140.12V17.85h39.62c15.01,0,24.8.61,29.36,1.83,7.01,1.83,12.87,5.83,17.6,11.97,4.73,6.14,7.09,14.08,7.09,23.81,0,7.51-1.36,13.82-4.09,18.93-2.72,5.12-6.19,9.13-10.38,12.05-4.2,2.92-8.47,4.85-12.8,5.8-5.89,1.17-14.43,1.75-25.61,1.75h-16.1v46.12h-24.69ZM60.11,40.55v30.67c0,1.11.9,2.02,2.02,2.02h11.5c9.73,0,16.24-.64,19.52-1.92,3.28-1.28,5.85-3.28,7.71-6.01,1.86-2.72,2.79-5.89,2.79-9.51,0-4.45-1.31-8.12-3.92-11.01-2.61-2.89-5.92-4.7-9.93-5.42-2.95-.56-8.87-.83-17.77-.83h-9.91c-1.11,0-2.02.9-2.02,2.02Z"/>
</svg>